<svg data-v-423bf9ae="" xmlns="http://www.w3.org/2000/svg" viewBox="0 0 339.05125140359337 184" class="iconAboveSlogan"><!----><!----><!----><g data-v-423bf9ae="" id="f11ab04b-0d4a-4ff2-8386-fb386a2a34e9" fill="white" transform="matrix(5.69260015617097,0,0,5.69260015617097,-3.586333894995846,58.370012953323425)"><path d="M3.18 15.19C5.29 15.19 5.80 14.21 5.80 13.44C5.80 12.15 4.47 11.79 3.32 11.26C2.32 10.79 1.41 10.44 1.41 9.38C1.41 8.51 2.28 8.23 3.21 8.23C4.40 8.23 5.12 8.58 5.12 9.37C5.12 9.48 5.11 9.60 5.05 9.73C5.18 9.77 5.29 9.77 5.38 9.72C5.52 9.63 5.56 9.49 5.56 9.28C5.56 8.40 4.77 7.84 3.23 7.84C2.02 7.84 0.97 8.27 0.97 9.42C0.97 10.71 2.00 11.10 3.09 11.63C4.19 12.17 5.35 12.42 5.35 13.47C5.35 14.32 4.44 14.80 3.14 14.80C1.92 14.80 1.06 14.34 1.06 13.29C1.06 13.09 1.09 12.98 1.15 12.84C0.78 12.80 0.63 12.99 0.63 13.43C0.63 14.36 1.32 15.19 3.18 15.19ZM12.42 13.41C12.17 14.39 11.20 14.78 10.23 14.78C8.93 14.78 7.70 14.07 7.63 11.75C8.08 11.82 8.58 11.89 9.25 11.89C11.40 11.89 12.57 11.19 12.57 9.77C12.57 8.54 11.69 7.85 10.30 7.85C8.26 7.85 7.18 9.31 7.18 11.62C7.18 14 8.32 15.19 10.19 15.19C11.26 15.19 12.18 14.81 12.53 14.01C12.70 13.62 12.59 13.48 12.42 13.41ZM10.28 8.23C11.17 8.23 12.14 8.58 12.14 9.77C12.14 10.95 11.19 11.54 9.42 11.54C8.90 11.54 8.16 11.48 7.63 11.40C7.69 9.24 8.76 8.23 10.28 8.23ZM24.36 13.80L24.35 10.86C24.35 8.90 23.72 7.85 22.22 7.85C21.15 7.85 20.20 8.60 19.87 9.80C19.67 8.55 19.01 7.85 17.79 7.85C16.80 7.85 15.89 8.55 15.50 9.76L15.50 9.04C15.50 8.29 15.11 7.88 14.52 7.88C14.24 7.88 13.90 8.05 13.90 8.36C13.90 8.44 13.93 8.54 14.03 8.65C14.11 8.41 14.29 8.27 14.50 8.27C14.88 8.27 15.08 8.55 15.08 9.02L15.09 14.83C15.09 15.02 15.18 15.13 15.33 15.13C15.46 15.13 15.53 15.08 15.58 15.02C15.50 14.70 15.50 14.22 15.50 11.70C15.50 8.99 16.86 8.25 17.75 8.25C19.05 8.25 19.52 9.11 19.52 10.85L19.53 14.83C19.53 15.02 19.61 15.13 19.77 15.13C19.89 15.13 19.96 15.08 20.02 15.02C19.96 14.80 19.94 14.36 19.94 13.80L19.92 11.28C19.99 8.90 21.31 8.25 22.18 8.25C23.48 8.25 23.94 9.11 23.94 10.85L23.95 14.83C23.95 15.02 24.04 15.13 24.19 15.13C24.32 15.13 24.39 15.08 24.44 15.02C24.39 14.80 24.36 14.36 24.36 13.80ZM30.17 7.85C28.76 7.85 27.92 8.81 27.48 9.95L27.48 8.99C27.48 8.26 27.26 7.88 26.68 7.88C26.35 7.88 26.12 8.01 26.12 8.22C26.12 8.32 26.17 8.41 26.26 8.53C26.36 8.30 26.53 8.27 26.64 8.27C26.95 8.27 27.06 8.46 27.06 8.97L27.05 17.91C27.05 18.10 27.15 18.21 27.31 18.21C27.44 18.21 27.51 18.16 27.57 18.10C27.52 17.91 27.48 17.07 27.48 16.51L27.48 13.82C27.79 14.69 28.55 15.19 29.61 15.19C31.50 15.19 32.49 13.62 32.49 11.13C32.49 10.04 32.30 7.85 30.17 7.85ZM29.57 14.80C27.82 14.80 27.48 13.27 27.48 12.03C27.48 9.84 28.53 8.25 30.14 8.25C31.88 8.25 32.05 10.12 32.05 11.16C32.05 13.64 31.09 14.80 29.57 14.80ZM36.96 7.85C36.08 7.85 35.39 8.44 35.08 9.53L35.08 9.04C35.08 8.27 34.86 7.88 34.30 7.88C33.96 7.88 33.74 8.01 33.74 8.22C33.74 8.32 33.78 8.41 33.88 8.53C33.98 8.30 34.15 8.27 34.26 8.27C34.55 8.27 34.68 8.46 34.68 8.97L34.68 14.83C34.68 15.02 34.76 15.13 34.92 15.13C35.04 15.13 35.13 15.08 35.18 15.02C35.10 14.69 35.11 14.20 35.11 11.56C35.11 8.96 36.13 8.25 36.96 8.25C37.59 8.25 37.98 8.53 37.98 9.23C37.98 9.48 37.95 9.74 37.70 10.05C37.73 10.07 37.79 10.08 37.87 10.07C38.09 10.02 38.39 9.70 38.39 9.17C38.39 8.30 37.80 7.85 36.96 7.85ZM42.39 15.19C44.28 15.19 45.39 13.83 45.39 11.52C45.39 9.21 44.28 7.85 42.39 7.85C40.50 7.85 39.40 9.21 39.40 11.52C39.40 13.83 40.50 15.19 42.39 15.19ZM42.39 14.80C40.80 14.80 39.84 13.58 39.84 11.52C39.84 9.46 40.80 8.25 42.39 8.25C43.99 8.25 44.94 9.46 44.94 11.52C44.94 13.58 43.99 14.80 42.39 14.80ZM52.72 13.80L52.72 10.86C52.72 8.90 52.01 7.85 50.47 7.85C49.41 7.85 48.40 8.53 47.99 9.66L47.99 8.99C47.99 8.26 47.77 7.88 47.19 7.88C46.86 7.88 46.63 8.01 46.63 8.22C46.63 8.32 46.68 8.41 46.77 8.53C46.87 8.30 47.04 8.27 47.15 8.27C47.45 8.27 47.56 8.46 47.57 8.97L47.57 14.83C47.57 15.02 47.66 15.13 47.82 15.13C47.95 15.13 48.02 15.08 48.08 15.02C47.99 14.69 47.99 14.20 47.99 11.56C47.99 8.96 49.48 8.25 50.43 8.25C51.76 8.25 52.29 9.11 52.30 10.85L52.30 14.83C52.30 15.02 52.40 15.13 52.57 15.13C52.70 15.13 52.77 15.08 52.82 15.02C52.77 14.80 52.74 14.36 52.72 13.80ZM56.91 18.38C58.80 18.38 60.19 17.40 60.19 14.38L60.19 8.78C59.53 7.97 58.38 7.85 57.72 7.85C55.02 7.85 54.74 10.25 54.74 11.56C54.74 14.04 55.64 15.16 57.20 15.16C58.45 15.16 59.39 14.45 59.75 13.27L59.75 14.15C59.75 16.79 58.93 17.99 56.94 17.99C56.03 17.99 55.19 17.63 55.19 16.60C55.19 16.27 55.29 16.02 55.55 15.86C55.50 15.78 55.41 15.74 55.29 15.74C55.03 15.74 54.78 16.09 54.78 16.65C54.78 17.81 55.76 18.38 56.91 18.38ZM57.23 14.77C55.92 14.77 55.19 13.80 55.19 11.59C55.19 10.37 55.45 8.25 57.60 8.25C58.52 8.25 59.37 8.47 59.77 8.96L59.75 11.56C59.75 12.74 59.22 14.77 57.23 14.77Z"></path></g><!----><g data-v-423bf9ae="" id="14a1ca27-7182-40da-977e-faa66372b501" transform="matrix(2.8125,0,0,2.8125,125,0)" stroke="none" fill="white"><path d="M9.382 8.675h13.943v13.943L32 31.293V0H.707zM22.618 23.325H8.675V9.382L0 .707V32h31.293z"></path></g><!----><g data-v-423bf9ae="" id="e58d29d5-0cd2-49cb-95cb-ab21f6b8aae1" fill="white" transform="matrix(0.7892989789294201,0,0,0.7892989789294201,42.94427515601856,202.1914570709107)"><path d="M8.22 3.92L8.02 3.92L0.73 3.92L0.52 3.92L0.42 3.92L0.42 5.96L0.77 5.96C0.97 5.96 1.05 5.85 1.06 5.63C1.06 5.53 1.09 5.17 1.12 4.52L4.02 4.52L4.02 13.26C3.85 13.26 3.71 13.27 3.57 13.27C3.43 13.27 3.32 13.29 3.25 13.29L3.12 13.29C2.94 13.30 2.84 13.38 2.84 13.54L2.84 13.82L4.02 13.82L4.73 13.82L5.92 13.82L5.92 13.54C5.92 13.38 5.82 13.30 5.64 13.29L5.50 13.29C5.43 13.29 5.33 13.27 5.19 13.27C5.05 13.27 4.90 13.26 4.73 13.26L4.73 4.52L7.62 4.52C7.66 5.24 7.67 5.60 7.67 5.63C7.69 5.85 7.78 5.96 7.98 5.96L8.32 5.96L8.32 3.92ZM25.61 8.86C25.61 8.11 25.48 7.41 25.26 6.79C25.03 6.17 24.71 5.64 24.29 5.19C23.87 4.75 23.38 4.40 22.81 4.16C22.23 3.92 21.57 3.79 20.87 3.79C20.17 3.79 19.54 3.92 18.97 4.16C18.40 4.40 17.89 4.75 17.47 5.19C17.05 5.64 16.73 6.17 16.51 6.79C16.28 7.41 16.16 8.11 16.16 8.86C16.16 9.63 16.28 10.33 16.51 10.95C16.73 11.56 17.05 12.10 17.47 12.54C17.89 12.99 18.40 13.33 18.97 13.57C19.54 13.80 20.17 13.93 20.87 13.93C21.57 13.93 22.23 13.80 22.81 13.57C23.38 13.33 23.87 12.99 24.29 12.54C24.71 12.10 25.03 11.56 25.26 10.95C25.48 10.33 25.61 9.63 25.61 8.86ZM24.85 8.86C24.85 9.56 24.77 10.18 24.57 10.72C24.37 11.27 24.11 11.75 23.76 12.12C23.41 12.50 22.99 12.81 22.50 13.01C22.01 13.20 21.48 13.30 20.87 13.30C20.29 13.30 19.75 13.20 19.26 13.01C18.77 12.81 18.35 12.50 18.00 12.12C17.65 11.75 17.37 11.27 17.18 10.72C16.98 10.18 16.90 9.56 16.90 8.86C16.90 8.18 16.98 7.55 17.18 7.00C17.37 6.45 17.65 5.98 18.00 5.60C18.35 5.22 18.77 4.91 19.26 4.72C19.75 4.52 20.29 4.41 20.87 4.41C21.48 4.41 22.01 4.52 22.50 4.72C22.99 4.91 23.41 5.22 23.76 5.60C24.11 5.98 24.37 6.45 24.57 7.00C24.77 7.55 24.85 8.18 24.85 8.86ZM42.38 13.29L42.29 13.29L42.11 13.29C42.03 13.29 41.93 13.27 41.83 13.27L37.80 9.06C37.72 8.96 37.65 8.89 37.56 8.83C37.48 8.78 37.39 8.74 37.30 8.71C37.38 8.68 37.45 8.64 37.52 8.58C37.59 8.53 37.67 8.46 37.76 8.36L41.55 4.45L41.82 4.45C41.90 4.45 41.96 4.44 42 4.44L42.08 4.44C42.27 4.42 42.36 4.34 42.36 4.19L42.36 3.91L41.38 3.91L41.26 3.91L39.45 3.91L39.45 4.19C39.45 4.34 39.55 4.42 39.73 4.44L39.90 4.44C40.00 4.44 40.12 4.45 40.29 4.45L40.74 4.45L37.07 8.22C37.02 8.27 36.96 8.33 36.92 8.36C36.88 8.39 36.82 8.40 36.76 8.43C36.71 8.44 36.67 8.47 36.60 8.47C36.53 8.48 36.44 8.48 36.36 8.48L35.77 8.48L35.77 4.45C35.94 4.45 36.09 4.44 36.23 4.44C36.37 4.44 36.47 4.42 36.54 4.42L36.68 4.42C36.86 4.41 36.95 4.33 36.95 4.17L36.95 3.91L35.77 3.91L35.06 3.91L33.88 3.91L33.88 4.17C33.88 4.33 33.98 4.41 34.16 4.42L34.29 4.42C34.36 4.42 34.47 4.44 34.61 4.44C34.75 4.44 34.89 4.45 35.06 4.45L35.06 13.26C34.89 13.26 34.75 13.27 34.61 13.27C34.47 13.27 34.36 13.29 34.29 13.29L34.16 13.29C33.98 13.30 33.88 13.38 33.88 13.54L33.88 13.82L35.06 13.82L35.77 13.82L36.95 13.82L36.95 13.54C36.95 13.38 36.86 13.30 36.68 13.29L36.54 13.29C36.47 13.29 36.37 13.27 36.23 13.27C36.09 13.27 35.94 13.26 35.77 13.26L35.77 9.04L36.41 9.04C36.53 9.04 36.62 9.04 36.69 9.06C36.76 9.07 36.82 9.09 36.88 9.11C36.93 9.14 36.99 9.17 37.03 9.21C37.07 9.25 37.11 9.28 37.17 9.34L41.02 13.27C40.88 13.27 40.71 13.29 40.54 13.29L40.14 13.29L39.96 13.29C39.77 13.30 39.68 13.38 39.68 13.54L39.68 13.82L41.55 13.82L41.61 13.82L41.78 13.82L42.36 13.82L42.66 13.82L42.66 13.54C42.66 13.38 42.56 13.30 42.38 13.29ZM59.43 8.86C59.43 8.11 59.30 7.41 59.08 6.79C58.86 6.17 58.53 5.64 58.11 5.19C57.69 4.75 57.20 4.40 56.63 4.16C56.06 3.92 55.40 3.79 54.70 3.79C54.00 3.79 53.37 3.92 52.79 4.16C52.22 4.40 51.72 4.75 51.30 5.19C50.88 5.64 50.55 6.17 50.33 6.79C50.11 7.41 49.98 8.11 49.98 8.86C49.98 9.63 50.11 10.33 50.33 10.95C50.55 11.56 50.88 12.10 51.30 12.54C51.72 12.99 52.22 13.33 52.79 13.57C53.37 13.80 54.00 13.93 54.70 13.93C55.40 13.93 56.06 13.80 56.63 13.57C57.20 13.33 57.69 12.99 58.11 12.54C58.53 12.10 58.86 11.56 59.08 10.95C59.30 10.33 59.43 9.63 59.43 8.86ZM58.67 8.86C58.67 9.56 58.59 10.18 58.39 10.72C58.20 11.27 57.93 11.75 57.58 12.12C57.23 12.50 56.81 12.81 56.32 13.01C55.83 13.20 55.30 13.30 54.70 13.30C54.11 13.30 53.58 13.20 53.09 13.01C52.60 12.81 52.18 12.50 51.83 12.12C51.48 11.75 51.20 11.27 51.00 10.72C50.81 10.18 50.72 9.56 50.72 8.86C50.72 8.18 50.81 7.55 51.00 7.00C51.20 6.45 51.48 5.98 51.83 5.60C52.18 5.22 52.60 4.91 53.09 4.72C53.58 4.52 54.11 4.41 54.70 4.41C55.30 4.41 55.83 4.52 56.32 4.72C56.81 4.91 57.23 5.22 57.58 5.60C57.93 5.98 58.20 6.45 58.39 7.00C58.59 7.55 58.67 8.18 58.67 8.86ZM85.19 9.52C84.77 9.11 84.17 8.86 83.38 8.75C83.71 8.67 83.99 8.55 84.24 8.40C84.49 8.25 84.71 8.08 84.88 7.87C85.05 7.66 85.19 7.43 85.27 7.20C85.36 6.96 85.41 6.71 85.41 6.44C85.41 6.05 85.33 5.68 85.20 5.38C85.08 5.07 84.87 4.80 84.60 4.58C84.34 4.37 84.00 4.20 83.58 4.09C83.16 3.98 82.67 3.92 82.11 3.92L79.27 3.92L78.08 3.92L78.08 4.19C78.08 4.34 78.18 4.42 78.36 4.44L78.50 4.44C78.57 4.44 78.67 4.45 78.81 4.45C78.95 4.45 79.10 4.47 79.27 4.47L79.27 13.26C79.10 13.26 78.95 13.27 78.81 13.27C78.67 13.27 78.57 13.29 78.50 13.29L78.36 13.29C78.18 13.30 78.09 13.38 78.09 13.54L78.09 13.82L79.27 13.82L82.47 13.82C83.01 13.82 83.47 13.76 83.89 13.64C84.31 13.51 84.66 13.34 84.94 13.10C85.22 12.87 85.44 12.59 85.60 12.25C85.75 11.91 85.82 11.54 85.82 11.12C85.82 10.46 85.61 9.93 85.19 9.52ZM79.98 4.48L82.11 4.48C82.99 4.48 83.65 4.66 84.07 5.00C84.49 5.35 84.70 5.84 84.70 6.51C84.70 6.76 84.66 7.03 84.56 7.27C84.46 7.50 84.31 7.71 84.10 7.91C83.89 8.11 83.62 8.26 83.30 8.37C82.98 8.48 82.59 8.55 82.12 8.55L79.98 8.55ZM84.43 12.68C83.99 13.06 83.33 13.24 82.46 13.24L79.98 13.24L79.98 9.07L82.47 9.07C82.89 9.07 83.26 9.11 83.58 9.21C83.90 9.31 84.18 9.45 84.41 9.62C84.63 9.80 84.80 10.00 84.92 10.25C85.04 10.50 85.11 10.79 85.11 11.10C85.11 11.79 84.88 12.31 84.43 12.68ZM102.33 3.92L101.61 3.92L100.25 3.92L100.25 4.19C100.25 4.34 100.35 4.42 100.53 4.44L100.70 4.44C100.80 4.44 100.94 4.45 101.11 4.45C101.28 4.45 101.44 4.47 101.61 4.47L101.61 10.04C101.61 10.50 101.54 10.92 101.40 11.33C101.26 11.73 101.07 12.08 100.80 12.38C100.53 12.67 100.23 12.89 99.85 13.06C99.47 13.23 99.05 13.31 98.57 13.31C98.10 13.31 97.66 13.23 97.29 13.06C96.91 12.89 96.59 12.66 96.33 12.36C96.07 12.07 95.89 11.72 95.75 11.33C95.61 10.93 95.54 10.50 95.54 10.04L95.54 4.47C95.70 4.47 95.87 4.45 96.04 4.45C96.21 4.45 96.35 4.44 96.45 4.44L96.61 4.44C96.80 4.42 96.89 4.34 96.89 4.19L96.89 3.92L95.54 3.92L94.82 3.92L93.65 3.92L93.65 4.19C93.65 4.34 93.73 4.42 93.91 4.44L94.05 4.44C94.12 4.44 94.22 4.45 94.36 4.45C94.50 4.45 94.65 4.47 94.82 4.47L94.82 10.04C94.82 10.58 94.91 11.09 95.07 11.56C95.24 12.04 95.49 12.46 95.82 12.81C96.14 13.16 96.54 13.44 97.01 13.64C97.47 13.83 98.00 13.93 98.57 13.93C99.15 13.93 99.67 13.83 100.13 13.64C100.59 13.44 101.00 13.16 101.32 12.81C101.64 12.46 101.89 12.04 102.06 11.56C102.23 11.09 102.33 10.58 102.33 10.04L102.33 4.47C102.49 4.47 102.63 4.45 102.77 4.45C102.91 4.45 103.03 4.44 103.10 4.44L103.22 4.44C103.40 4.42 103.50 4.34 103.50 4.19L103.50 3.92ZM120.02 13.29L119.94 13.29L119.76 13.29C119.67 13.29 119.57 13.27 119.48 13.27L115.44 9.06C115.36 8.96 115.29 8.89 115.21 8.83C115.12 8.78 115.04 8.74 114.94 8.71C115.02 8.68 115.09 8.64 115.16 8.58C115.23 8.53 115.32 8.46 115.40 8.36L119.20 4.45L119.46 4.45C119.55 4.45 119.60 4.44 119.64 4.44L119.73 4.44C119.91 4.42 120.01 4.34 120.01 4.19L120.01 3.91L119.03 3.91L118.90 3.91L117.10 3.91L117.10 4.19C117.10 4.34 117.19 4.42 117.38 4.44L117.54 4.44C117.64 4.44 117.77 4.45 117.94 4.45L118.38 4.45L114.72 8.22C114.66 8.27 114.60 8.33 114.56 8.36C114.52 8.39 114.46 8.40 114.41 8.43C114.35 8.44 114.31 8.47 114.24 8.47C114.17 8.48 114.09 8.48 114.00 8.48L113.41 8.48L113.41 4.45C113.58 4.45 113.74 4.44 113.88 4.44C114.02 4.44 114.11 4.42 114.18 4.42L114.32 4.42C114.51 4.41 114.59 4.33 114.59 4.17L114.59 3.91L113.41 3.91L112.70 3.91L111.52 3.91L111.52 4.17C111.52 4.33 111.62 4.41 111.80 4.42L111.93 4.42C112.00 4.42 112.11 4.44 112.25 4.44C112.39 4.44 112.53 4.45 112.70 4.45L112.70 13.26C112.53 13.26 112.39 13.27 112.25 13.27C112.11 13.27 112.00 13.29 111.93 13.29L111.80 13.29C111.62 13.30 111.52 13.38 111.52 13.54L111.52 13.82L112.70 13.82L113.41 13.82L114.59 13.82L114.59 13.54C114.59 13.38 114.51 13.30 114.32 13.29L114.18 13.29C114.11 13.29 114.02 13.27 113.88 13.27C113.74 13.27 113.58 13.26 113.41 13.26L113.41 9.04L114.06 9.04C114.17 9.04 114.27 9.04 114.34 9.06C114.41 9.07 114.46 9.09 114.52 9.11C114.58 9.14 114.63 9.17 114.67 9.21C114.72 9.25 114.76 9.28 114.81 9.34L118.66 13.27C118.52 13.27 118.36 13.29 118.19 13.29L117.78 13.29L117.60 13.29C117.42 13.30 117.32 13.38 117.32 13.54L117.32 13.82L119.20 13.82L119.25 13.82L119.42 13.82L120.01 13.82L120.30 13.82L120.30 13.54C120.30 13.38 120.20 13.30 120.02 13.29ZM136.89 3.92L136.18 3.92L134.82 3.92L134.82 4.19C134.82 4.34 134.92 4.42 135.10 4.44L135.27 4.44C135.37 4.44 135.51 4.45 135.67 4.45C135.84 4.45 136.01 4.47 136.18 4.47L136.18 10.04C136.18 10.50 136.11 10.92 135.97 11.33C135.83 11.73 135.63 12.08 135.37 12.38C135.10 12.67 134.79 12.89 134.41 13.06C134.04 13.23 133.62 13.31 133.14 13.31C132.66 13.31 132.23 13.23 131.85 13.06C131.47 12.89 131.15 12.66 130.90 12.36C130.63 12.07 130.45 11.72 130.31 11.33C130.17 10.93 130.10 10.50 130.10 10.04L130.10 4.47C130.27 4.47 130.44 4.45 130.61 4.45C130.77 4.45 130.91 4.44 131.01 4.44L131.18 4.44C131.36 4.42 131.46 4.34 131.46 4.19L131.46 3.92L130.10 3.92L129.39 3.92L128.21 3.92L128.21 4.19C128.21 4.34 128.30 4.42 128.48 4.44L128.62 4.44C128.69 4.44 128.79 4.45 128.93 4.45C129.07 4.45 129.22 4.47 129.39 4.47L129.39 10.04C129.39 10.58 129.47 11.09 129.64 11.56C129.81 12.04 130.06 12.46 130.38 12.81C130.70 13.16 131.11 13.44 131.57 13.64C132.03 13.83 132.57 13.93 133.14 13.93C133.71 13.93 134.23 13.83 134.69 13.64C135.16 13.44 135.56 13.16 135.88 12.81C136.21 12.46 136.46 12.04 136.63 11.56C136.79 11.09 136.89 10.58 136.89 10.04L136.89 4.47C137.06 4.47 137.20 4.45 137.34 4.45C137.48 4.45 137.59 4.44 137.66 4.44L137.79 4.44C137.97 4.42 138.07 4.34 138.07 4.19L138.07 3.92ZM162.19 9.91C162.05 9.65 161.85 9.39 161.62 9.21C161.38 9.03 161.13 8.88 160.83 8.75C160.54 8.62 160.22 8.51 159.91 8.41C159.60 8.32 159.29 8.20 159.00 8.11C158.70 7.99 158.44 7.87 158.20 7.71C157.96 7.56 157.78 7.38 157.64 7.15C157.50 6.93 157.42 6.65 157.42 6.31C157.42 6.06 157.47 5.82 157.57 5.59C157.67 5.35 157.81 5.15 157.99 4.97C158.17 4.79 158.40 4.65 158.68 4.55C158.96 4.45 159.26 4.40 159.63 4.40C160.30 4.40 160.92 4.51 161.48 4.75C161.52 5.54 161.55 5.99 161.55 6.06C161.56 6.29 161.64 6.41 161.84 6.41L162.18 6.41L162.18 4.38C161.29 4.00 160.45 3.81 159.63 3.81C159.17 3.81 158.76 3.88 158.40 4.02C158.03 4.16 157.74 4.34 157.50 4.58C157.26 4.82 157.07 5.08 156.94 5.39C156.81 5.70 156.76 6.02 156.76 6.36C156.76 6.78 156.83 7.14 156.97 7.42C157.11 7.70 157.30 7.92 157.54 8.12C157.78 8.32 158.03 8.46 158.33 8.58C158.62 8.71 158.94 8.82 159.25 8.92C159.56 9.02 159.85 9.11 160.16 9.21C160.45 9.31 160.72 9.45 160.96 9.60C161.20 9.76 161.38 9.94 161.52 10.16C161.66 10.39 161.73 10.68 161.73 11.03C161.73 11.35 161.67 11.66 161.56 11.94C161.45 12.22 161.29 12.46 161.08 12.67C160.87 12.88 160.61 13.05 160.30 13.16C159.99 13.29 159.64 13.33 159.25 13.33C158.47 13.33 157.81 13.20 157.28 12.95C157.26 12.75 157.26 12.54 157.25 12.32C157.23 12.10 157.23 11.91 157.22 11.76C157.21 11.61 157.21 11.52 157.21 11.51C157.19 11.28 157.09 11.17 156.90 11.17L156.56 11.17L156.56 13.02L156.56 13.20L156.56 13.38C157.42 13.75 158.30 13.93 159.22 13.93C159.73 13.93 160.17 13.85 160.57 13.69C160.96 13.54 161.29 13.31 161.56 13.05C161.83 12.78 162.05 12.46 162.19 12.10C162.33 11.73 162.40 11.34 162.40 10.92C162.40 10.51 162.33 10.18 162.19 9.91ZM171.85 3.92L170.66 3.92L170.66 4.19C170.66 4.34 170.76 4.42 170.94 4.44L171.08 4.44C171.15 4.44 171.25 4.45 171.39 4.45C171.53 4.45 171.68 4.47 171.85 4.47L171.85 13.26C171.68 13.26 171.53 13.27 171.39 13.27C171.25 13.27 171.15 13.29 171.08 13.29L170.94 13.29C170.76 13.30 170.67 13.38 170.67 13.54L170.67 13.82L171.85 13.82L177.79 13.82L177.79 13.22L177.79 11.76L177.44 11.76C177.24 11.76 177.16 11.89 177.14 12.11C177.14 12.14 177.13 12.19 177.13 12.29C177.13 12.39 177.13 12.53 177.11 12.74C177.10 12.95 177.09 13.09 177.09 13.22L172.56 13.22L172.56 9.09L176.51 9.09L176.51 8.51L172.56 8.51L172.56 4.51L177.09 4.51C177.11 5.12 177.14 5.50 177.14 5.63C177.16 5.85 177.24 5.96 177.44 5.96L177.79 5.96L177.79 4.51L177.79 3.92ZM190.46 3.91L189.74 3.91L188.45 3.91L188.45 4.19C188.45 4.34 188.55 4.42 188.73 4.44L188.90 4.44C188.99 4.44 189.10 4.45 189.25 4.45C189.41 4.45 189.57 4.47 189.74 4.47L189.74 10.53C189.74 11.00 189.69 11.42 189.59 11.77C189.48 12.12 189.32 12.42 189.13 12.64C188.93 12.87 188.68 13.05 188.40 13.16C188.12 13.27 187.80 13.33 187.45 13.33C187.31 13.33 187.17 13.31 187.07 13.30C186.97 13.29 186.87 13.26 186.79 13.24C186.70 13.23 186.63 13.22 186.58 13.20C186.52 13.19 186.47 13.17 186.42 13.17C186.35 13.17 186.33 13.19 186.30 13.22C186.27 13.24 186.26 13.29 186.24 13.33C186.24 13.40 186.24 13.45 186.23 13.52C186.23 13.59 186.21 13.65 186.20 13.72C186.42 13.79 186.65 13.85 186.86 13.87C187.07 13.90 187.29 13.93 187.50 13.93C187.96 13.93 188.37 13.85 188.73 13.71C189.10 13.55 189.42 13.34 189.67 13.05C189.92 12.75 190.12 12.40 190.26 11.98C190.40 11.56 190.46 11.07 190.46 10.51L190.46 4.47C190.62 4.47 190.78 4.45 190.92 4.45C191.06 4.45 191.16 4.44 191.23 4.44L191.37 4.44C191.55 4.42 191.65 4.34 191.65 4.19L191.65 3.91ZM207.98 3.92L207.27 3.92L205.91 3.92L205.91 4.19C205.91 4.34 206.01 4.42 206.19 4.44L206.36 4.44C206.46 4.44 206.60 4.45 206.77 4.45C206.93 4.45 207.10 4.47 207.27 4.47L207.27 10.04C207.27 10.50 207.20 10.92 207.06 11.33C206.92 11.73 206.72 12.08 206.46 12.38C206.19 12.67 205.88 12.89 205.51 13.06C205.13 13.23 204.71 13.31 204.23 13.31C203.76 13.31 203.32 13.23 202.94 13.06C202.57 12.89 202.24 12.66 201.99 12.36C201.73 12.07 201.54 11.72 201.40 11.33C201.26 10.93 201.19 10.50 201.19 10.04L201.19 4.47C201.36 4.47 201.53 4.45 201.70 4.45C201.87 4.45 202.01 4.44 202.10 4.44L202.27 4.44C202.45 4.42 202.55 4.34 202.55 4.19L202.55 3.92L201.19 3.92L200.48 3.92L199.30 3.92L199.30 4.19C199.30 4.34 199.39 4.42 199.57 4.44L199.71 4.44C199.78 4.44 199.88 4.45 200.02 4.45C200.16 4.45 200.31 4.47 200.48 4.47L200.48 10.04C200.48 10.58 200.56 11.09 200.73 11.56C200.90 12.04 201.15 12.46 201.47 12.81C201.80 13.16 202.20 13.44 202.66 13.64C203.13 13.83 203.66 13.93 204.23 13.93C204.81 13.93 205.32 13.83 205.79 13.64C206.25 13.44 206.65 13.16 206.98 12.81C207.30 12.46 207.55 12.04 207.72 11.56C207.89 11.09 207.98 10.58 207.98 10.04L207.98 4.47C208.15 4.47 208.29 4.45 208.43 4.45C208.57 4.45 208.68 4.44 208.75 4.44L208.88 4.44C209.06 4.42 209.16 4.34 209.16 4.19L209.16 3.92ZM224.70 3.92L224.50 3.92L217.21 3.92L217 3.92L216.90 3.92L216.90 5.96L217.25 5.96C217.45 5.96 217.53 5.85 217.55 5.63C217.55 5.53 217.57 5.17 217.60 4.52L220.50 4.52L220.50 13.26C220.33 13.26 220.19 13.27 220.05 13.27C219.91 13.27 219.80 13.29 219.73 13.29L219.60 13.29C219.42 13.30 219.32 13.38 219.32 13.54L219.32 13.82L220.50 13.82L221.21 13.82L222.40 13.82L222.40 13.54C222.40 13.38 222.31 13.30 222.12 13.29L221.98 13.29C221.91 13.29 221.82 13.27 221.68 13.27C221.54 13.27 221.38 13.26 221.21 13.26L221.21 4.52L224.10 4.52C224.14 5.24 224.15 5.60 224.15 5.63C224.17 5.85 224.27 5.96 224.46 5.96L224.80 5.96L224.80 3.92ZM241.39 13.22L240.93 13.17L237.15 3.91L236.43 3.91L232.64 13.17L232.19 13.22C232.01 13.23 231.92 13.33 231.92 13.50L231.92 13.82L232.37 13.82L232.67 13.82L232.92 13.82L233.02 13.82L234.33 13.82L234.33 13.50C234.33 13.31 234.22 13.23 234.01 13.22C234.00 13.22 233.97 13.20 233.93 13.20C233.88 13.20 233.83 13.19 233.73 13.19C233.63 13.19 233.51 13.19 233.37 13.17L234.35 10.75L234.42 10.57L239.15 10.57L239.22 10.75L240.20 13.17C240.06 13.19 239.95 13.19 239.85 13.19C239.75 13.19 239.68 13.20 239.64 13.20C239.60 13.20 239.57 13.22 239.55 13.22C239.34 13.23 239.23 13.31 239.23 13.50L239.23 13.82L240.55 13.82L240.65 13.82L240.91 13.82L241.19 13.82L241.65 13.82L241.65 13.50C241.65 13.33 241.57 13.23 241.39 13.22ZM236.59 5.22C236.61 5.14 236.66 5.04 236.68 4.94C236.71 4.84 236.75 4.75 236.78 4.63C236.81 4.75 236.85 4.84 236.88 4.94C236.91 5.04 236.95 5.12 236.98 5.21L238.94 10.04L234.64 10.04ZM268.58 3.92L267.86 3.92L266.50 3.92L266.50 4.19C266.50 4.34 266.60 4.42 266.78 4.44L266.95 4.44C267.05 4.44 267.19 4.45 267.36 4.45C267.53 4.45 267.69 4.47 267.86 4.47L267.86 10.04C267.86 10.50 267.79 10.92 267.65 11.33C267.51 11.73 267.32 12.08 267.05 12.38C266.78 12.67 266.48 12.89 266.10 13.06C265.72 13.23 265.30 13.31 264.82 13.31C264.35 13.31 263.91 13.23 263.54 13.06C263.16 12.89 262.84 12.66 262.58 12.36C262.32 12.07 262.14 11.72 262.00 11.33C261.86 10.93 261.79 10.50 261.79 10.04L261.79 4.47C261.95 4.47 262.12 4.45 262.29 4.45C262.46 4.45 262.60 4.44 262.70 4.44L262.86 4.44C263.05 4.42 263.14 4.34 263.14 4.19L263.14 3.92L261.79 3.92L261.07 3.92L259.90 3.92L259.90 4.19C259.90 4.34 259.98 4.42 260.16 4.44L260.30 4.44C260.37 4.44 260.47 4.45 260.61 4.45C260.75 4.45 260.90 4.47 261.07 4.47L261.07 10.04C261.07 10.58 261.16 11.09 261.32 11.56C261.49 12.04 261.74 12.46 262.07 12.81C262.39 13.16 262.79 13.44 263.26 13.64C263.72 13.83 264.25 13.93 264.82 13.93C265.40 13.93 265.92 13.83 266.38 13.64C266.84 13.44 267.25 13.16 267.57 12.81C267.89 12.46 268.14 12.04 268.31 11.56C268.48 11.09 268.58 10.58 268.58 10.04L268.58 4.47C268.74 4.47 268.88 4.45 269.02 4.45C269.16 4.45 269.28 4.44 269.35 4.44L269.47 4.44C269.65 4.42 269.75 4.34 269.75 4.19L269.75 3.92ZM289.65 4.44C289.83 4.42 289.93 4.34 289.93 4.19L289.93 3.92L288.75 3.92L288.25 3.92C288.18 3.92 288.13 3.92 288.09 3.93C288.05 3.95 288.02 3.99 287.98 4.05L284.09 10.92C284.05 10.99 284.02 11.06 283.99 11.13C283.96 11.20 283.93 11.28 283.91 11.35C283.85 11.20 283.79 11.06 283.72 10.93L279.72 4.05C279.68 3.99 279.65 3.95 279.61 3.93C279.57 3.92 279.52 3.92 279.45 3.92L278.96 3.92L277.77 3.92L277.77 4.19C277.77 4.34 277.87 4.42 278.05 4.44L278.19 4.44C278.26 4.44 278.36 4.45 278.50 4.45C278.64 4.45 278.80 4.47 278.96 4.47L278.96 13.26C278.80 13.26 278.64 13.27 278.50 13.27C278.36 13.27 278.26 13.29 278.19 13.29L278.05 13.29C277.87 13.30 277.77 13.38 277.77 13.54L277.77 13.82L278.96 13.82L279.58 13.82L280.80 13.82L280.80 13.54C280.80 13.38 280.70 13.30 280.52 13.29L280.38 13.29C280.31 13.29 280.20 13.27 280.06 13.27C279.92 13.27 279.75 13.26 279.58 13.26L279.58 5.38C279.58 5.25 279.58 5.12 279.57 4.98L283.57 11.91C283.64 12.04 283.74 12.10 283.85 12.10L283.96 12.10C284.09 12.10 284.17 12.04 284.24 11.91L288.13 4.98C288.12 5.12 288.12 5.25 288.12 5.38L288.12 13.26C287.95 13.26 287.78 13.27 287.64 13.27C287.50 13.27 287.39 13.29 287.32 13.29L287.18 13.29C287 13.30 286.90 13.38 286.90 13.54L286.90 13.82L288.12 13.82L288.75 13.82L289.93 13.82L289.93 13.54C289.93 13.38 289.83 13.30 289.65 13.29L289.52 13.29C289.45 13.29 289.34 13.27 289.20 13.27C289.06 13.27 288.92 13.26 288.75 13.26L288.75 4.47C288.92 4.47 289.06 4.45 289.20 4.45C289.34 4.45 289.45 4.44 289.52 4.44ZM307.57 13.22L307.10 13.17L303.32 3.91L302.61 3.91L298.82 13.17L298.37 13.22C298.19 13.23 298.10 13.33 298.10 13.50L298.10 13.82L298.55 13.82L298.84 13.82L299.10 13.82L299.19 13.82L300.51 13.82L300.51 13.50C300.51 13.31 300.40 13.23 300.19 13.22C300.17 13.22 300.15 13.20 300.10 13.20C300.06 13.20 300.01 13.19 299.91 13.19C299.81 13.19 299.68 13.19 299.54 13.17L300.52 10.75L300.59 10.57L305.33 10.57L305.40 10.75L306.38 13.17C306.24 13.19 306.12 13.19 306.03 13.19C305.93 13.19 305.86 13.20 305.82 13.20C305.77 13.20 305.75 13.22 305.73 13.22C305.52 13.23 305.41 13.31 305.41 13.50L305.41 13.82L306.73 13.82L306.82 13.82L307.09 13.82L307.37 13.82L307.83 13.82L307.83 13.50C307.83 13.33 307.75 13.23 307.57 13.22ZM302.76 5.22C302.79 5.14 302.83 5.04 302.86 4.94C302.89 4.84 302.93 4.75 302.96 4.63C302.99 4.75 303.03 4.84 303.06 4.94C303.09 5.04 303.13 5.12 303.16 5.21L305.12 10.04L300.82 10.04ZM322.49 3.92L322.29 3.92L315 3.92L314.79 3.92L314.69 3.92L314.69 5.96L315.04 5.96C315.24 5.96 315.32 5.85 315.34 5.63C315.34 5.53 315.36 5.17 315.39 4.52L318.29 4.52L318.29 13.26C318.12 13.26 317.98 13.27 317.84 13.27C317.70 13.27 317.59 13.29 317.52 13.29L317.39 13.29C317.21 13.30 317.11 13.38 317.11 13.54L317.11 13.82L318.29 13.82L319.00 13.82L320.19 13.82L320.19 13.54C320.19 13.38 320.10 13.30 319.91 13.29L319.77 13.29C319.70 13.29 319.61 13.27 319.47 13.27C319.33 13.27 319.17 13.26 319.00 13.26L319.00 4.52L321.89 4.52C321.93 5.24 321.94 5.60 321.94 5.63C321.96 5.85 322.06 5.96 322.25 5.96L322.59 5.96L322.59 3.92Z"></path></g></svg>