<svg data-v-fde0c5aa="" xmlns="http://www.w3.org/2000/svg" viewBox="0 0 300 300" class="font"><!----><defs data-v-fde0c5aa=""><!----></defs><rect data-v-fde0c5aa="" fill="transparent" x="0" y="0" width="300px" height="300px" class="logo-background-square"></rect><defs data-v-fde0c5aa=""><linearGradient data-v-fde0c5aa="" gradientTransform="rotate(25)" id="840c9e7c-6087-496f-b960-221aebf44a3e" x1="0%" y1="0%" x2="100%" y2="0%"><stop data-v-fde0c5aa="" offset="0%" stop-color="#41E296" stop-opacity="1"></stop><stop data-v-fde0c5aa="" offset="100%" stop-color="#00C4EE" stop-opacity="1"></stop></linearGradient></defs><g data-v-fde0c5aa="" id="a192d99f-afdd-4135-97ee-7723230e8654" fill="url(#840c9e7c-6087-496f-b960-221aebf44a3e)" transform="matrix(3.6937543488575377,0,0,3.6937543488575377,37.67293477783294,101.5748817546276)"><path d="M3.18 15.19C5.29 15.19 5.80 14.21 5.80 13.44C5.80 12.15 4.47 11.79 3.32 11.26C2.32 10.79 1.41 10.44 1.41 9.38C1.41 8.51 2.28 8.23 3.21 8.23C4.40 8.23 5.12 8.58 5.12 9.37C5.12 9.48 5.11 9.60 5.05 9.73C5.18 9.77 5.29 9.77 5.38 9.72C5.52 9.63 5.56 9.49 5.56 9.28C5.56 8.40 4.77 7.84 3.23 7.84C2.02 7.84 0.97 8.27 0.97 9.42C0.97 10.71 2.00 11.10 3.09 11.63C4.19 12.17 5.35 12.42 5.35 13.47C5.35 14.32 4.44 14.80 3.14 14.80C1.92 14.80 1.06 14.34 1.06 13.29C1.06 13.09 1.09 12.98 1.15 12.84C0.78 12.80 0.63 12.99 0.63 13.43C0.63 14.36 1.32 15.19 3.18 15.19ZM12.42 13.41C12.17 14.39 11.20 14.78 10.23 14.78C8.93 14.78 7.70 14.07 7.63 11.75C8.08 11.82 8.58 11.89 9.25 11.89C11.40 11.89 12.57 11.19 12.57 9.77C12.57 8.54 11.69 7.85 10.30 7.85C8.26 7.85 7.18 9.31 7.18 11.62C7.18 14 8.32 15.19 10.19 15.19C11.26 15.19 12.18 14.81 12.53 14.01C12.70 13.62 12.59 13.48 12.42 13.41ZM10.28 8.23C11.17 8.23 12.14 8.58 12.14 9.77C12.14 10.95 11.19 11.54 9.42 11.54C8.90 11.54 8.16 11.48 7.63 11.40C7.69 9.24 8.76 8.23 10.28 8.23ZM24.36 13.80L24.35 10.86C24.35 8.90 23.72 7.85 22.22 7.85C21.15 7.85 20.20 8.60 19.87 9.80C19.67 8.55 19.01 7.85 17.79 7.85C16.80 7.85 15.89 8.55 15.50 9.76L15.50 9.04C15.50 8.29 15.11 7.88 14.52 7.88C14.24 7.88 13.90 8.05 13.90 8.36C13.90 8.44 13.93 8.54 14.03 8.65C14.11 8.41 14.29 8.27 14.50 8.27C14.88 8.27 15.08 8.55 15.08 9.02L15.09 14.83C15.09 15.02 15.18 15.13 15.33 15.13C15.46 15.13 15.53 15.08 15.58 15.02C15.50 14.70 15.50 14.22 15.50 11.70C15.50 8.99 16.86 8.25 17.75 8.25C19.05 8.25 19.52 9.11 19.52 10.85L19.53 14.83C19.53 15.02 19.61 15.13 19.77 15.13C19.89 15.13 19.96 15.08 20.02 15.02C19.96 14.80 19.94 14.36 19.94 13.80L19.92 11.28C19.99 8.90 21.31 8.25 22.18 8.25C23.48 8.25 23.94 9.11 23.94 10.85L23.95 14.83C23.95 15.02 24.04 15.13 24.19 15.13C24.32 15.13 24.39 15.08 24.44 15.02C24.39 14.80 24.36 14.36 24.36 13.80ZM30.17 7.85C28.76 7.85 27.92 8.81 27.48 9.95L27.48 8.99C27.48 8.26 27.26 7.88 26.68 7.88C26.35 7.88 26.12 8.01 26.12 8.22C26.12 8.32 26.17 8.41 26.26 8.53C26.36 8.30 26.53 8.27 26.64 8.27C26.95 8.27 27.06 8.46 27.06 8.97L27.05 17.91C27.05 18.10 27.15 18.21 27.31 18.21C27.44 18.21 27.51 18.16 27.57 18.10C27.52 17.91 27.48 17.07 27.48 16.51L27.48 13.82C27.79 14.69 28.55 15.19 29.61 15.19C31.50 15.19 32.49 13.62 32.49 11.13C32.49 10.04 32.30 7.85 30.17 7.85ZM29.57 14.80C27.82 14.80 27.48 13.27 27.48 12.03C27.48 9.84 28.53 8.25 30.14 8.25C31.88 8.25 32.05 10.12 32.05 11.16C32.05 13.64 31.09 14.80 29.57 14.80ZM36.96 7.85C36.08 7.85 35.39 8.44 35.08 9.53L35.08 9.04C35.08 8.27 34.86 7.88 34.30 7.88C33.96 7.88 33.74 8.01 33.74 8.22C33.74 8.32 33.78 8.41 33.88 8.53C33.98 8.30 34.15 8.27 34.26 8.27C34.55 8.27 34.68 8.46 34.68 8.97L34.68 14.83C34.68 15.02 34.76 15.13 34.92 15.13C35.04 15.13 35.13 15.08 35.18 15.02C35.10 14.69 35.11 14.20 35.11 11.56C35.11 8.96 36.13 8.25 36.96 8.25C37.59 8.25 37.98 8.53 37.98 9.23C37.98 9.48 37.95 9.74 37.70 10.05C37.73 10.07 37.79 10.08 37.87 10.07C38.09 10.02 38.39 9.70 38.39 9.17C38.39 8.30 37.80 7.85 36.96 7.85ZM42.39 15.19C44.28 15.19 45.39 13.83 45.39 11.52C45.39 9.21 44.28 7.85 42.39 7.85C40.50 7.85 39.40 9.21 39.40 11.52C39.40 13.83 40.50 15.19 42.39 15.19ZM42.39 14.80C40.80 14.80 39.84 13.58 39.84 11.52C39.84 9.46 40.80 8.25 42.39 8.25C43.99 8.25 44.94 9.46 44.94 11.52C44.94 13.58 43.99 14.80 42.39 14.80ZM52.72 13.80L52.72 10.86C52.72 8.90 52.01 7.85 50.47 7.85C49.41 7.85 48.40 8.53 47.99 9.66L47.99 8.99C47.99 8.26 47.77 7.88 47.19 7.88C46.86 7.88 46.63 8.01 46.63 8.22C46.63 8.32 46.68 8.41 46.77 8.53C46.87 8.30 47.04 8.27 47.15 8.27C47.45 8.27 47.56 8.46 47.57 8.97L47.57 14.83C47.57 15.02 47.66 15.13 47.82 15.13C47.95 15.13 48.02 15.08 48.08 15.02C47.99 14.69 47.99 14.20 47.99 11.56C47.99 8.96 49.48 8.25 50.43 8.25C51.76 8.25 52.29 9.11 52.30 10.85L52.30 14.83C52.30 15.02 52.40 15.13 52.57 15.13C52.70 15.13 52.77 15.08 52.82 15.02C52.77 14.80 52.74 14.36 52.72 13.80ZM56.91 18.38C58.80 18.38 60.19 17.40 60.19 14.38L60.19 8.78C59.53 7.97 58.38 7.85 57.72 7.85C55.02 7.85 54.74 10.25 54.74 11.56C54.74 14.04 55.64 15.16 57.20 15.16C58.45 15.16 59.39 14.45 59.75 13.27L59.75 14.15C59.75 16.79 58.93 17.99 56.94 17.99C56.03 17.99 55.19 17.63 55.19 16.60C55.19 16.27 55.29 16.02 55.55 15.86C55.50 15.78 55.41 15.74 55.29 15.74C55.03 15.74 54.78 16.09 54.78 16.65C54.78 17.81 55.76 18.38 56.91 18.38ZM57.23 14.77C55.92 14.77 55.19 13.80 55.19 11.59C55.19 10.37 55.45 8.25 57.60 8.25C58.52 8.25 59.37 8.47 59.77 8.96L59.75 11.56C59.75 12.74 59.22 14.77 57.23 14.77Z"></path></g><!----><!----></svg>